<?xml version="1.0" encoding="UTF-8" standalone="no"?>
<!-- Created with Inkscape (http://www.inkscape.org/) -->

<svg
   xmlns:dc="http://purl.org/dc/elements/1.1/"
   xmlns:cc="http://creativecommons.org/ns#"
   xmlns:rdf="http://www.w3.org/1999/02/22-rdf-syntax-ns#"
   xmlns:svg="http://www.w3.org/2000/svg"
   xmlns="http://www.w3.org/2000/svg"
   xmlns:sodipodi="http://sodipodi.sourceforge.net/DTD/sodipodi-0.dtd"
   xmlns:inkscape="http://www.inkscape.org/namespaces/inkscape"
   width="210mm"
   height="210mm"
   viewBox="0 0 210 210"
   version="1.1"
   id="svg8"
   inkscape:version="0.92.2 (5c3e80d, 2017-08-06)"
   sodipodi:docname="logo.svg"
   inkscape:export-filename="C:\Users\achague.DESKTOP-5OQDO79\Pictures\Mascottes et logos\htr-united\htr-united.ico.png"
   inkscape:export-xdpi="1.9400001"
   inkscape:export-ydpi="1.9400001">
  <defs
     id="defs2" />
  <sodipodi:namedview
     id="base"
     pagecolor="#ffffff"
     bordercolor="#666666"
     borderopacity="1.0"
     inkscape:pageopacity="0.0"
     inkscape:pageshadow="2"
     inkscape:zoom="0.70397504"
     inkscape:cx="128.48456"
     inkscape:cy="346.51399"
     inkscape:document-units="mm"
     inkscape:current-layer="layer1"
     showgrid="false"
     inkscape:window-width="1920"
     inkscape:window-height="986"
     inkscape:window-x="-11"
     inkscape:window-y="-11"
     inkscape:window-maximized="1" />
  <metadata
     id="metadata5">
    <rdf:RDF>
      <cc:Work
         rdf:about="">
        <dc:format>image/svg+xml</dc:format>
        <dc:type
           rdf:resource="http://purl.org/dc/dcmitype/StillImage" />
        <dc:title />
      </cc:Work>
    </rdf:RDF>
  </metadata>
  <g
     inkscape:label="Calque 1"
     inkscape:groupmode="layer"
     id="layer1"
     transform="translate(0,-87)">
    <g
       id="g1134"
       transform="matrix(1.0835193,0,0,1.0835193,-41.733699,-304.33285)">
      <path
         sodipodi:nodetypes="cccccccccccccccccccccccccccccccccc"
         inkscape:connector-curvature="0"
         id="path1114"
         d="m 63.971869,445.55965 -5.748953,-50.2199 21.240098,2.10985 20.968266,-1.76452 36.22398,-3.87773 33.10105,7.39777 29.56065,-4.31385 16.28775,48.03264 -15.98958,13.66176 -40.87927,6.10423 -29.68115,3.41465 -34.454257,-6.09511 -28.137612,-4.69452 z m 10.31853,26.56808 23.885727,20.00787 18.913854,-3.03205 14.86252,6.19808 17.58923,-14.28808 28.91713,-3.67712 12.73353,11.31164 22.54522,-11.71322 7.82933,16.13606 6.1076,22.2963 -44.02022,4.35669 -50.84643,-2.8858 -38.373638,0.52044 -27.616119,6.98365 -20.813916,-2.60672 -1.87985,-18.83121 -0.524893,-27.87643 1.871654,-10.0386 12.426096,-2.69582 z"
         style="fill:#dde9af;fill-opacity:1;stroke-width:0.26458332" />
      <path
         inkscape:connector-curvature="0"
         id="path1124"
         d="m 194.25569,513.02648 c 0,0 12.05237,-0.9836 18.7725,-1.23071 2.07145,-0.0762 3.78704,-0.47761 5.63485,-0.73771 2.45416,-0.34545 6.04443,-1.17537 7.05231,-0.45772 1.00789,0.71766 0.94493,2.10921 0.1628,2.24966 -0.32742,0.0588 -2.29288,0.43635 -4.36768,0.839 -3.30181,0.64077 -7.26244,0.56535 -9.86234,0.76635 -3.03029,0.23428 -4.06149,0.32463 -12.54203,0.8908 -7.91324,0.5283 -10.35933,0.77889 -12.24937,0.91435 -2.64204,0.18935 -7.84645,0.50374 -14.49056,1.26691 -2.47385,0.28416 -5.28381,0.51683 -6.24436,0.51705 -2.0713,5.3e-4 -22.51467,-3.59417 -27.43149,-4.82339 -4.41407,-1.10353 -5.71046,-1.12122 -22.5481,-0.30773 -5.21563,0.25199 -7.04439,0.20002 -9.64911,0.52768 -1.93903,0.24392 -7.879221,0.3796 -8.467741,0.41894 -4.70025,0.3142 -10.13478,0.66105 -12.92276,1.02151 -1.28277,0.16585 -5.03324,0.33594 -8.33438,0.37797 -3.30114,0.042 -7.37085,0.16898 -9.0438,0.28209 l -9.61045,0.54231 c -6.56872,0.33664 -6.64389,0.32858 -10.62462,0.4492 -2.22774,0.0675 -3.9753,-0.0822 -3.9753,-0.0822 l -0.34211,-2.25662 3.38479,-0.34633 c 1.81901,-0.053 3.34778,-0.13313 3.39727,-0.17817 0.0495,-0.045 4.16037,0.0813 11.35667,-0.57486 1.6859,0.0369 11.79993,-0.14096 13.51418,-0.4335 0.33758,0.1827 25.167034,-1.18408 25.396901,-1.37602 l 4.88271,-0.12499 c -5e-5,0.18165 14.73387,-0.69181 14.92283,-0.88076 l 12.14882,-0.81546 c 0.57586,-0.0387 1.59895,0.40162 4.21462,0.87658 1.74188,0.31629 4.0005,0.73656 5.01914,0.93393 1.88652,0.36553 4.38697,0.8948 5.28182,0.90177 1.06372,0.38335 12.78432,1.99417 13.57991,2.14878 1.54438,0.30011 6.53596,1.13453 6.53596,1.13453 z"
         style="fill:#5f5fd3;stroke-width:0.26458332"
         sodipodi:nodetypes="cssscssssccssssscccccccccccccscccscc" />
      <path
         sodipodi:nodetypes="ccccccccccscccccscccscccccccccccccccc"
         style="fill:#5f5fd3;stroke-width:0.26458332"
         d="m 102.85152,451.13524 4.69968,0.46862 c 2.97444,0.40885 24.48638,2.76798 24.60348,2.65089 l 5.28762,0.46831 c 0.25466,-0.006 7.67728,-0.83606 12.80249,-1.45653 v 1e-5 c 5.12521,-0.62047 13.78265,-1.72333 14.74001,-1.84838 0.88064,0.0704 7.15233,-0.74973 7.62527,-0.83149 0.47295,-0.0817 4.34192,-0.56337 8.59773,-1.07032 v 2e-5 c 4.2558,-0.50694 7.79791,-0.92172 7.87135,-0.92172 0.0734,0 4.95637,-0.43099 5.50223,-0.7543 3.32791,0.16316 11.90792,-2.66737 12.55694,-1.67684 0.46697,0.71268 0.58814,0.98067 0.0856,2.19602 -3.20548,0.84437 -4.22775,0.9105 -9.53388,1.63097 -5.30612,0.72046 -29.52494,3.68263 -29.52494,3.68263 0,0 -16.09459,1.78106 -18.37534,2.15073 l -11.29915,1.53365 -3.51437,-0.22895 -2.62132,-0.23194 -12.56087,-1.16036 c -7.08736,-0.65473 -13.05473,-1.56986 -13.26968,-1.48737 -0.21496,0.0825 -4.08157,-0.27108 -4.08157,-0.27108 l -3.148801,-0.42841 c 0,0 -0.81378,-0.29174 -7.86,-1.0099 -4.06624,-0.41443 -7.63714,-0.75719 -7.93533,-0.76169 -0.38481,-0.006 -3.69256,-0.28276 -3.69256,-0.28276 l -4.33976,-0.38229 c 0,0 -2.28973,-0.37402 -3.92668,-0.53585 -0.98248,-0.0971 -2.24796,-0.29389 -2.81219,-0.43724 -0.70731,-0.17971 -1.50194,-0.32769 -1.69765,-0.13199 l 0.0817,-2.08833 c 0.11044,0.10852 1.5901,-0.1056 2.24495,-0.0491 0.65484,0.0565 1.31961,0.12357 1.47726,0.14899 0.15764,0.0254 0.36128,-0.0284 0.45253,-0.11967 0.22262,0.38497 12.58568,1.38153 18.70771,2.0044 4.00182,0.40716 7.4844,0.75538 7.73906,0.77382"
         id="path1126"
         inkscape:connector-curvature="0" />
      <path
         style="fill:#001318;fill-opacity:1;stroke-width:0.26458332"
         d="m 56.258806,520.60043 c -1.60925,-0.4774 -2.69714,-1.40059 -4.0938,-3.47401 -1.92532,-2.85824 -4.31283,-9.7822 -5.41319,-15.69863 -0.39806,-2.14026 -0.46793,-4.12454 -0.47053,-13.36146 -0.003,-11.42455 0.22463,-14.81169 1.21113,-18.0056 0.64168,-2.07753 1.64196,-3.02877 3.1849,-3.02877 1.3196,0 2.19511,0.45583 3.53698,1.84153 1.02909,1.0627 1.05943,1.14744 1.15363,3.22182 0.1232,2.71295 -0.3586,7.38815 -1.05967,10.28248 -0.50884,2.10076 -0.52451,2.51048 -0.23781,6.21771 0.57343,7.41488 2.05281,17.16656 2.7704,18.26174 0.56721,0.86566 1.46924,0.83793 2.33039,-0.0716 1.67824,-1.7726 5.51855,-8.857 6.66752,-12.29986 0.35268,-1.05682 0.95032,-3.70743 1.32807,-5.89024 1.46232,-8.44984 2.79698,-11.2895 5.85506,-12.4574 1.46291,-0.55868 2.30898,-0.18081 3.4668,1.54835 1.23717,1.84768 1.51777,3.59237 1.16265,7.22919 -0.37721,3.86311 -0.38156,11.68282 -0.008,13.73402 0.19329,1.0603 0.77943,2.45828 1.76497,4.20952 2.5577,4.54492 3.75157,5.41828 6.74151,4.93166 0.81756,-0.13307 1.954,-0.48045 2.52542,-0.77197 1.80546,-0.92108 5.67338,-5.15468 8.69878,-9.52119 0.58441,-0.84347 2.903834,-1.88519 4.201784,-1.88715 2.24656,-0.003 3.58207,1.64304 3.96731,4.89094 0.26048,2.19601 0.71068,2.95679 1.97362,3.33518 0.94727,0.2838 1.17885,0.24607 2.52145,-0.4108 1.05477,-0.51605 1.77356,-1.12288 2.50854,-2.11779 2.06409,-2.79404 4.71328,-4.37819 7.32172,-4.37819 1.01366,0 1.34755,0.1404 2.08304,0.87588 0.4994,0.49941 1.01105,1.37789 1.19037,2.04384 0.51215,1.90196 1.73143,4.05572 2.88711,5.0998 0.91245,0.82435 1.26828,0.97632 2.286,0.97632 1.0133,0 1.72731,-0.30173 4.48181,-1.89392 1.80207,-1.04165 3.84894,-2.34244 4.5486,-2.89065 2.96005,-2.3193 4.01788,-2.94971 5.16696,-3.07922 2.05559,-0.2317 3.25821,1.30411 4.43276,5.66088 0.96746,3.58861 2.81806,5.19014 4.81609,4.1679 1.28728,-0.65861 4.96664,-4.51278 5.53527,-5.79827 0.26937,-0.60896 0.90167,-2.90134 1.4051,-5.09419 1.72531,-7.51507 3.70344,-12.32985 6.06408,-14.76004 2.10688,-2.16895 3.60519,-2.24537 4.99389,-0.2547 0.40508,0.58066 0.85648,1.71059 1.00312,2.51096 0.44268,2.41619 1.28436,2.7578 4.81582,1.95459 2.33968,-0.53215 3.43705,-0.3899 5.84769,0.75801 3.79371,1.80651 4.714,3.41258 2.28648,3.99032 -0.37277,0.0887 -2.32103,0.3435 -4.32947,0.56617 -2.00844,0.22268 -4.38235,0.59338 -5.27536,0.82376 -2.34866,0.60593 -5.10139,2.14326 -6.69978,3.74164 -2.35064,2.35064 -2.33221,2.28005 -2.33221,8.9353 0,5.07649 0.0601,5.93079 0.46981,6.68073 0.39192,0.71732 0.62364,0.85989 1.39756,0.85989 2.2507,0 3.91785,-1.48593 4.21778,-3.75931 0.22732,-1.72294 0.92041,-3.37104 1.75314,-4.16876 0.99403,-0.95225 3.68011,-2.12565 4.86643,-2.12589 2.5958,-5.2e-4 5.41923,3.74754 5.41923,7.1939 0,0.68438 0.13712,1.0772 0.41294,1.18305 0.41148,0.1579 5.63805,-0.34152 6.32241,-0.60413 0.19798,-0.076 0.51054,-0.50168 0.69459,-0.94602 0.8324,-2.00959 5.2227,-7.0143 8.30227,-9.46414 0.8789,-0.69919 2.34199,-1.70716 3.2513,-2.23994 1.96558,-1.15167 2.35535,-1.80337 2.82947,-4.73083 0.48262,-2.97999 0.91366,-4.29691 1.62523,-4.96539 0.72802,-0.68394 2.6869,-0.96949 3.53544,-0.51537 1.05806,0.56626 1.68002,2.48561 1.81172,5.5909 0.10215,2.40843 0.0167,3.23204 -0.60387,5.82084 -1.05347,4.3947 -0.79402,6.1982 1.25936,8.75393 1.27597,1.58813 2.30915,1.84983 6.92175,1.7533 2.1925,-0.0459 4.13518,0.0129 4.31708,0.13062 0.49155,0.31814 0.40375,1.88681 -0.13277,2.37236 -1.13077,1.02333 -6.28956,2.16277 -8.64782,1.91008 -2.03523,-0.21808 -2.54952,-0.50423 -5.48634,-3.05259 -1.61,-1.39704 -2.63237,-2.1006 -2.979,-2.05004 -0.31686,0.0462 -1.06029,0.86876 -1.86044,2.05842 -3.33134,4.95303 -6.62679,6.85588 -10.55736,6.096 -0.89279,-0.1726 -2.0995,-0.58543 -2.68158,-0.91742 -0.58208,-0.33198 -1.71318,-0.68283 -2.51354,-0.77966 -0.80037,-0.0968 -2.51016,-0.3374 -3.79954,-0.53458 -1.97846,-0.30256 -2.55654,-0.30201 -3.70416,0.004 -0.76309,0.20318 -2.69512,0.36575 -4.40255,0.37046 -4.3014,0.0118 -6.4093,0.37195 -8.55389,1.46128 -0.99385,0.50483 -2.01663,0.91787 -2.27284,0.91787 -0.25621,0 -1.1784,-0.35608 -2.04932,-0.79128 -1.6598,-0.82941 -2.89096,-2.22686 -4.35231,-4.94018 -0.38054,-0.70656 -1.00752,-1.45357 -1.3933,-1.66003 -0.77446,-0.41448 -1.45945,-0.17214 -3.28623,1.16261 -0.48042,0.35103 -1.79861,0.94633 -2.9293,1.32288 l -2.05579,0.68464 -1.82174,-0.56268 c -2.53414,-0.78271 -4.51019,-1.69024 -6.17684,-2.83682 l -1.42176,-0.9781 -3.60532,5.3e-4 c -3.78002,5.3e-4 -5.91943,0.44162 -6.69381,1.37983 -0.68909,0.83488 -2.64157,1.47622 -4.44596,1.46039 -2.43395,-0.0214 -3.86665,-0.55363 -6.86764,-2.55147 -1.78072,-1.18543 -2.87641,-1.74449 -3.41904,-1.74449 -0.82599,0 -2.61236,1.10747 -6.22053,3.85647 -2.76587,2.10726 -5.45444,2.79237 -7.27123,1.85287 -0.81339,-0.42062 -1.91561,-2.27935 -2.695027,-4.54477 -1.127887,-3.27827 -1.669907,-3.1361 -6.747607,1.76984 -2.37371,2.29341 -2.83702,2.62144 -4.36563,3.09092 -2.7845,0.85519 -7.03843,1.46845 -8.9487,1.29006 -2.28628,-0.21349 -3.22215,-0.75502 -6.93289,-4.0116 -1.73886,-1.52605 -3.27722,-2.77463 -3.41857,-2.77463 -0.43056,0 -2.32145,2.57434 -2.66941,3.63425 -0.54001,1.64491 -1.3674,2.72769 -4.0244,5.26661 -2.57508,2.46065 -3.97523,3.61259 -4.68799,3.85695 -0.21829,0.0748 -0.90625,-0.0151 -1.52882,-0.19975 z m 94.071964,-27.65127 c -1.47674,-0.78482 -2.79969,-2.23208 -2.99576,-3.27723 -0.36036,-1.92092 0.60334,-3.04915 2.61114,-3.05691 1.46617,-0.006 1.8918,0.32848 2.58078,2.02603 0.76023,1.87306 0.78141,3.03732 0.0725,3.98766 -0.68727,0.9214 -1.04333,0.97169 -2.2687,0.32045 z m -15.98933,-30.76472 c -1.66089,-1.81728 -4.41913,-5.8737 -4.80129,-7.06101 -0.5442,-1.69081 -1.08675,-9.16948 -1.64094,-22.6196 -0.52609,-12.76802 -1.00755,-16.39203 -2.37174,-17.8524 -1.0342,-1.10711 -2.22396,-1.05623 -6.02401,0.25761 -1.68358,0.58208 -3.47226,1.05833 -3.97485,1.05833 -1.26618,0 -3.85938,-1.4441 -5.07682,-2.82719 -1.03307,-1.17363 -1.72715,-3.08255 -1.44232,-3.96677 0.62705,-1.94656 1.6017,-2.45789 9.50002,-4.98398 6.94076,-2.21983 8.45628,-2.97079 10.87937,-5.39086 1.11024,-1.10887 2.10645,-1.8812 2.4265,-1.8812 0.29864,0 1.59417,0.25893 2.87897,0.57539 2.163,0.53278 3.03159,0.57746 11.7287,0.60325 7.81045,0.0232 9.71116,0.10292 11.28313,0.47346 3.66376,0.86359 5.99883,2.02083 6.79409,3.36711 0.68657,1.16226 0.58416,11.26947 -0.25342,25.011 -0.6435,10.55737 -0.68219,11.99617 -0.34151,12.7 0.27355,0.56512 0.57312,0.79375 1.04004,0.79375 1.03773,0 2.00194,-2.29844 5.82721,-13.89063 1.89679,-5.74807 3.98793,-11.82026 4.64698,-13.49375 3.49462,-8.87366 6.30516,-12.3698 10.16874,-12.64927 l 1.55345,-0.11236 1.41204,1.41988 c 0.77662,0.78093 1.6341,1.8924 1.90551,2.46991 0.69015,1.46855 0.96504,6.37724 0.65978,11.78173 -0.27655,4.89625 -0.44913,6.02953 -1.69233,11.11303 -1.5759,6.44392 -1.85437,10.84321 -0.82382,13.01492 0.576,1.21385 2.54519,3.2212 3.95967,4.03642 1.71193,0.98665 3.45945,1.4715 7.30627,2.02711 4.58121,0.66169 4.83281,0.89456 4.247,3.9307 -0.31066,1.61009 -0.93928,2.04389 -3.27955,2.26319 -2.16015,0.20242 -4.80937,-0.12203 -7.84661,-0.96098 -3.32661,-0.91889 -4.19454,-1.29796 -5.59101,-2.44187 -1.90136,-1.5575 -3.02455,-2.19925 -4.99233,-2.85246 -2.52742,-0.83898 -5.423,-2.36215 -7.67291,-4.03624 -1.09141,-0.81207 -2.18324,-1.47887 -2.4263,-1.48177 -0.42539,-0.005 -1.53122,3.09822 -3.4394,9.65202 -1.34671,4.62539 -2.87596,7.92476 -3.92439,8.46693 -2.83676,1.46694 -6.02848,-1.40423 -7.1094,-6.39541 -1.03129,-4.76203 -1.18014,-6.57562 -1.00488,-12.24376 0.17305,-5.59649 0.88838,-17.47771 1.66052,-27.57999 0.24119,-3.15571 0.36133,-5.93885 0.26697,-6.18476 -0.1533,-0.39948 -0.57268,-0.43323 -3.93745,-0.31684 -3.14431,0.10876 -4.13157,0.24886 -5.98151,0.84882 -2.53011,0.82055 -8.91496,3.66444 -9.58165,4.26778 -0.64743,0.58592 -0.74145,1.33343 -1.17844,9.369 -0.2177,4.00326 -0.57053,10.07662 -0.78407,13.49636 -0.91648,14.67704 -0.78069,22.77602 0.43694,26.06146 0.6439,1.73738 0.6217,2.04565 -0.20698,2.87433 -1.04773,1.04774 -1.71034,0.89981 -3.18197,-0.71039 z m 49.03778,-35.4353 c 0.8225,-0.91364 0.82708,-0.9293 1.53612,-5.24985 0.85088,-5.18478 0.85342,-6.08083 0.02,-7.03852 l -0.64605,-0.74236 -1.0076,0.52917 c -0.79177,0.41582 -1.21158,0.93723 -1.95993,2.43426 -1.19811,2.39671 -2.35496,6.42819 -2.35496,8.20671 0,1.15319 0.10565,1.44227 0.69714,1.90753 0.99806,0.78508 2.98892,0.75992 3.7153,-0.0469 z m -84.343614,29.89792 c -0.57775,-0.38258 -1.20371,-1.20989 -1.75163,-2.31511 -0.79377,-1.6011 -0.87087,-2.00281 -1.11715,-5.82083 -0.36894,-5.71955 -1.57819,-10.05376 -3.21787,-11.53353 -1.11728,-1.00832 -6.69007,-0.37389 -12.08722,1.37606 -3.79272,1.22973 -4.91015,2.42776 -4.90865,5.26268 0.001,1.82806 0.62124,3.25723 1.9521,4.49792 1.09694,1.02261 2.13486,3.20769 1.94413,4.09287 -0.46197,2.14394 -0.98861,2.654 -2.74026,2.654 -1.50573,0 -3.00884,-0.84176 -5.08901,-2.84993 -1.40764,-1.35891 -1.93861,-2.10675 -2.56623,-3.61437 -0.98123,-2.357 -3.10624,-9.83029 -3.35301,-11.79195 -0.10068,-0.80036 -0.33591,-1.75823 -0.52272,-2.1286 -0.18681,-0.37037 -0.64,-2.09678 -1.00709,-3.83646 -1.62964,-7.72308 -2.44413,-16.65636 -2.21826,-24.32973 0.17214,-5.84795 0.29801,-6.17079 2.89042,-7.41316 2.30472,-1.10451 2.83321,-1.13493 3.91426,-0.22529 2.3995,2.01905 4.23942,9.54863 4.64662,19.01553 0.0939,2.18282 0.29051,4.44069 0.43694,5.01749 0.33788,1.33091 1.88368,2.89684 3.26407,3.30657 2.28638,0.67864 14.76643,1.05269 15.56797,0.46659 0.43676,-0.31937 0.43934,-0.67492 0.048,-6.62561 -0.22747,-3.45846 -0.41689,-8.61653 -0.42094,-11.46236 -0.007,-5.0609 0.007,-5.19921 0.66024,-6.31341 1.24774,-2.12911 4.52565,-3.14806 6.417097,-1.99477 1.665647,1.0156 1.744867,1.42533 1.971697,10.19717 0.23194,8.96956 0.53846,12.73105 1.2451,15.27941 0.88334,3.18559 1.69548,3.87115 5.3857,4.54628 4.58145,0.83819 5.35906,1.88799 4.27096,5.76594 -0.524,1.86751 -1.17108,2.44361 -3.21939,2.86622 -3.33802,0.6887 -5.87288,2.16667 -6.80389,3.96703 -0.45146,0.87302 -0.5033,2.37292 -0.12732,3.68388 0.14444,0.50362 0.38438,2.42326 0.53321,4.26586 0.30483,3.77403 0.0385,5.87781 -0.80094,6.32708 -0.82464,0.44133 -2.251607,0.29248 -3.196894,-0.33347 z"
         id="path1108"
         inkscape:connector-curvature="0" />
    </g>
  </g>
</svg>
